HIERARCHY
ROOT hip
{
	OFFSET 0.000000 0.000000 0.000000
	CHANNELS 6 Xposition Yposition Zposition Xrotation Zrotation Yrotation 
	JOINT abdomen
	{
		OFFSET 0.000000 3.422050 0.000000
		CHANNELS 3 Xrotation Zrotation Yrotation 
		JOINT chest
		{
			OFFSET 0.000000 8.486693 -0.6844110
			CHANNELS 3 Xrotation Zrotation Yrotation 
			JOINT neck
			{
				OFFSET 0.000000 10.26616 -0.2737640
				CHANNELS 3 Xrotation Zrotation Yrotation 
				JOINT head
				{
					OFFSET 0.000000 3.148285 0.000000
					CHANNELS 3 Xrotation Zrotation Yrotation 
					End Site
					{
						OFFSET 0.000000 3.148289 0.000000
					}
				}
			}
			JOINT lCollar
			{
				OFFSET 3.422053 6.707223 -0.8212930
				CHANNELS 3 Yrotation Zrotation Xrotation 
				JOINT lShldr
				{
					OFFSET 3.285171 0.000000 0.000000
					CHANNELS 3 Zrotation Yrotation Xrotation 
					JOINT lForeArm
					{
						OFFSET 10.12928 0.000000 0.000000
						CHANNELS 3 Yrotation Zrotation Xrotation 
						JOINT lHand
						{
							OFFSET 8.486692 0.000000 0.000000
							CHANNELS 3 Zrotation Yrotation Xrotation 
							End Site
							{
								OFFSET 4.106464 0.000000 0.000000
							}
						}
					}
				}
			}
			JOINT rCollar
			{
				OFFSET -3.558935 6.707223 -0.8212930
				CHANNELS 3 Yrotation Zrotation Xrotation 
				JOINT rShldr
				{
					OFFSET -3.148289 0.000000 0.000000
					CHANNELS 3 Zrotation Yrotation Xrotation 
					JOINT rForeArm
					{
						OFFSET -10.26616 0.000000 0.000000
						CHANNELS 3 Yrotation Zrotation Xrotation 
						JOINT rHand
						{
							OFFSET -8.349810 0.000000 0.000000
							CHANNELS 3 Zrotation Yrotation Xrotation 
							End Site
							{
								OFFSET -4.106464 0.000000 0.000000
							}
						}
					}
				}
			}
		}
	}
	JOINT lThigh
	{
		OFFSET 5.338403 -1.642589 1.368821
		CHANNELS 3 Xrotation Zrotation Yrotation 
		JOINT lShin
		{
			OFFSET -2.053232 -20.12167 0.000000
			CHANNELS 3 Xrotation Zrotation Yrotation 
			JOINT lFoot
			{
				OFFSET 0.000000 -19.30038 -1.231939
				CHANNELS 3 Xrotation Yrotation Zrotation 
				End Site
				{
					OFFSET 0.000000 -2.463878 4.653993
				}
			}
		}
	}
	JOINT rThigh
	{
		OFFSET -5.338403 -1.642589 1.368821
		CHANNELS 3 Xrotation Zrotation Yrotation 
		JOINT rShin
		{
			OFFSET 2.053232 -20.12167 0.000000
			CHANNELS 3 Xrotation Zrotation Yrotation 
			JOINT rFoot
			{
				OFFSET 0.000000 -19.30038 -1.231939
				CHANNELS 3 Xrotation Yrotation Zrotation 
				End Site
				{
					OFFSET 0.000000 -2.463878 4.653993
				}
			}
		}
	}
}
MOTION
Frames:	16
Frame Time:	0.03333333
24.06667 43.52852 0.000000 1.000000 0.000000 0.000000 1.000000 0.000000 0.000000 1.000000 0.000000 0.000000 1.000000 0.000000 0.000000 1.000000 0.000000 0.000000 0.000000 0.000000 1.000000 -74.00000 24.86667 0.000000 -118.9333 0.9333333 0.000000 0.000000 0.000000 -6.000000 0.000000 0.000000 1.000000 74.00000 -24.86667 0.000000 118.9333 -0.9333333 0.000000 0.000000 0.000000 -6.000000 -11.00000 1.333333 0.8666667 25.00000 0.000000 0.000000 -14.00000 0.000000 0.000000 -11.00000 -1.333333 -0.8666667 98.73333 0.000000 0.000000 -14.00000 0.000000 0.000000 
23.13333 43.52852 0.000000 1.000000 0.000000 0.000000 1.000000 0.000000 0.000000 1.000000 0.000000 0.000000 1.000000 0.000000 0.000000 1.000000 0.000000 0.000000 0.000000 0.000000 1.000000 -74.00000 17.73333 0.000000 -116.8667 1.866667 0.000000 0.000000 0.000000 -12.00000 0.000000 0.000000 1.000000 74.00000 -17.73333 0.000000 116.8667 -1.866667 0.000000 0.000000 0.000000 -12.00000 -11.00000 2.666667 1.733333 25.00000 0.000000 0.000000 -14.00000 0.000000 0.000000 -11.00000 -2.666667 -1.733333 93.46667 0.000000 0.000000 -14.00000 0.000000 0.000000 
22.20000 43.52852 0.000000 1.000000 0.000000 0.000000 1.000000 0.000000 0.000000 1.000000 0.000000 0.000000 1.000000 0.000000 0.000000 1.000000 0.000000 0.000000 0.000000 0.000000 1.000000 -74.00000 10.60000 0.000000 -114.8000 2.800000 0.000000 0.000000 0.000000 -18.00000 0.000000 0.000000 1.000000 74.00000 -10.60000 0.000000 114.8000 -2.800000 0.000000 0.000000 0.000000 -18.00000 -11.00000 4.000000 2.600000 25.00000 0.000000 0.000000 -14.00000 0.000000 0.000000 -11.00000 -4.000000 -2.600000 88.20000 0.000000 0.000000 -14.00000 0.000000 0.000000 
21.26667 43.52852 0.000000 1.000000 0.000000 0.000000 1.000000 0.000000 0.000000 1.000000 0.000000 0.000000 1.000000 0.000000 0.000000 1.000000 0.000000 0.000000 0.000000 0.000000 1.000000 -74.00000 3.466667 0.000000 -112.7333 3.733333 0.000000 0.000000 0.000000 -24.00000 0.000000 0.000000 1.000000 74.00000 -3.466667 0.000000 112.7333 -3.733333 0.000000 0.000000 0.000000 -24.00000 -11.00000 5.333333 3.466667 25.00000 0.000000 0.000000 -14.00000 0.000000 0.000000 -11.00000 -5.333333 -3.466667 82.93333 0.000000 0.000000 -14.00000 0.000000 0.000000 
20.33333 43.52852 0.000000 1.000000 0.000000 0.000000 1.000000 0.000000 0.000000 1.000000 0.000000 0.000000 1.000000 0.000000 0.000000 1.000000 0.000000 0.000000 0.000000 0.000000 1.000000 -74.00000 -3.666667 0.000000 -110.6667 4.666667 0.000000 0.000000 0.000000 -30.00000 0.000000 0.000000 1.000000 74.00000 3.666667 0.000000 110.6667 -4.666667 0.000000 0.000000 0.000000 -30.00000 -11.00000 6.666667 4.333333 25.00000 0.000000 0.000000 -14.00000 0.000000 0.000000 -11.00000 -6.666667 -4.333333 77.66666 0.000000 0.000000 -14.00000 0.000000 0.000000 
19.40000 43.52852 0.000000 1.000000 0.000000 0.000000 1.000000 0.000000 0.000000 1.000000 0.000000 0.000000 1.000000 0.000000 0.000000 1.000000 0.000000 0.000000 0.000000 0.000000 1.000000 -74.00000 -10.80000 0.000000 -108.6000 5.600000 0.000000 0.000000 0.000000 -36.00000 0.000000 0.000000 1.000000 74.00000 10.80000 0.000000 108.6000 -5.600000 0.000000 0.000000 0.000000 -36.00000 -11.00000 8.000000 5.200000 25.00000 0.000000 0.000000 -14.00000 0.000000 0.000000 -11.00000 -8.000000 -5.200000 72.40000 0.000000 0.000000 -14.00000 0.000000 0.000000 
18.46667 43.52852 0.000000 1.000000 0.000000 0.000000 1.000000 0.000000 0.000000 1.000000 0.000000 0.000000 1.000000 0.000000 0.000000 1.000000 0.000000 0.000000 0.000000 0.000000 1.000000 -74.00000 -17.93333 0.000000 -106.5333 6.533333 0.000000 0.000000 0.000000 -42.00000 0.000000 0.000000 1.000000 74.00000 17.93333 0.000000 106.5333 -6.533333 0.000000 0.000000 0.000000 -42.00000 -11.00000 9.333333 6.066667 25.00000 0.000000 0.000000 -14.00000 0.000000 0.000000 -11.00000 -9.333333 -6.066667 67.13333 0.000000 0.000000 -14.00000 0.000000 0.000000 
17.53333 43.52852 0.000000 1.000000 0.000000 0.000000 1.000000 0.000000 0.000000 1.000000 0.000000 0.000000 1.000000 0.000000 0.000000 1.000000 0.000000 0.000000 0.000000 0.000000 1.000000 -74.00000 -25.06667 0.000000 -104.4667 7.466667 0.000000 0.000000 0.000000 -48.00000 0.000000 0.000000 1.000000 74.00000 25.06667 0.000000 104.4667 -7.466667 0.000000 0.000000 0.000000 -48.00000 -11.00000 10.66667 6.933333 25.00000 0.000000 0.000000 -14.00000 0.000000 0.000000 -11.00000 -10.66667 -6.933333 61.86666 0.000000 0.000000 -14.00000 0.000000 0.000000 
16.60000 43.52852 0.000000 1.000000 0.000000 0.000000 1.000000 0.000000 0.000000 1.000000 0.000000 0.000000 1.000000 0.000000 0.000000 1.000000 0.000000 0.000000 0.000000 0.000000 1.000000 -74.00000 -32.20000 0.000000 -102.4000 8.400000 0.000000 0.000000 0.000000 -54.00000 0.000000 0.000000 1.000000 74.00000 32.20000 0.000000 102.4000 -8.400000 0.000000 0.000000 0.000000 -54.00000 -11.00000 12.00000 7.800000 25.00000 0.000000 0.000000 -14.00000 0.000000 0.000000 -11.00000 -12.00000 -7.800000 56.60000 0.000000 0.000000 -14.00000 0.000000 0.000000 
15.66667 43.52852 0.000000 1.000000 0.000000 0.000000 1.000000 0.000000 0.000000 1.000000 0.000000 0.000000 1.000000 0.000000 0.000000 1.000000 0.000000 0.000000 0.000000 0.000000 1.000000 -74.00000 -39.33333 0.000000 -100.3333 9.333333 0.000000 0.000000 0.000000 -60.00000 0.000000 0.000000 1.000000 74.00000 39.33333 0.000000 100.3333 -9.333333 0.000000 0.000000 0.000000 -60.00000 -11.00000 13.33333 8.666667 25.00000 0.000000 0.000000 -14.00000 0.000000 0.000000 -11.00000 -13.33333 -8.666667 51.33333 0.000000 0.000000 -14.00000 0.000000 0.000000 
14.73333 43.52852 0.000000 1.000000 0.000000 0.000000 1.000000 0.000000 0.000000 1.000000 0.000000 0.000000 1.000000 0.000000 0.000000 1.000000 0.000000 0.000000 0.000000 0.000000 1.000000 -74.00000 -46.46667 0.000000 -98.26667 10.26667 0.000000 0.000000 0.000000 -66.00000 0.000000 0.000000 1.000000 74.00000 46.46667 0.000000 98.26667 -10.26667 0.000000 0.000000 0.000000 -66.00000 -11.00000 14.66667 9.533334 25.00000 0.000000 0.000000 -14.00000 0.000000 0.000000 -11.00000 -14.66667 -9.533334 46.06667 0.000000 0.000000 -14.00000 0.000000 0.000000 
13.80000 43.52852 0.000000 1.000000 0.000000 0.000000 1.000000 0.000000 0.000000 1.000000 0.000000 0.000000 1.000000 0.000000 0.000000 1.000000 0.000000 0.000000 0.000000 0.000000 1.000000 -74.00000 -53.60000 0.000000 -96.20000 11.20000 0.000000 0.000000 0.000000 -72.00000 0.000000 0.000000 1.000000 74.00000 53.60000 0.000000 96.20000 -11.20000 0.000000 0.000000 0.000000 -72.00000 -11.00000 16.00000 10.40000 25.00000 0.000000 0.000000 -14.00000 0.000000 0.000000 -11.00000 -16.00000 -10.40000 40.80000 0.000000 0.000000 -14.00000 0.000000 0.000000 
12.86667 43.52852 0.000000 1.000000 0.000000 0.000000 1.000000 0.000000 0.000000 1.000000 0.000000 0.000000 1.000000 0.000000 0.000000 1.000000 0.000000 0.000000 0.000000 0.000000 1.000000 -74.00000 -60.73333 0.000000 -94.13333 12.13333 0.000000 0.000000 0.000000 -78.00000 0.000000 0.000000 1.000000 74.00000 60.73333 0.000000 94.13333 -12.13333 0.000000 0.000000 0.000000 -78.00000 -11.00000 17.33333 11.26667 25.00000 0.000000 0.000000 -14.00000 0.000000 0.000000 -11.00000 -17.33333 -11.26667 35.53333 0.000000 0.000000 -14.00000 0.000000 0.000000 
11.93333 43.52852 0.000000 1.000000 0.000000 0.000000 1.000000 0.000000 0.000000 1.000000 0.000000 0.000000 1.000000 0.000000 0.000000 1.000000 0.000000 0.000000 0.000000 0.000000 1.000000 -74.00000 -67.86667 0.000000 -92.06667 13.06667 0.000000 0.000000 0.000000 -84.00000 0.000000 0.000000 1.000000 74.00000 67.86667 0.000000 92.06667 -13.06667 0.000000 0.000000 0.000000 -84.00000 -11.00000 18.66667 12.13333 25.00000 0.000000 0.000000 -14.00000 0.000000 0.000000 -11.00000 -18.66667 -12.13333 30.26667 0.000000 0.000000 -14.00000 0.000000 0.000000 
11.00000 43.52852 0.000000 1.000000 0.000000 0.000000 1.000000 0.000000 0.000000 1.000000 0.000000 0.000000 1.000000 0.000000 0.000000 1.000000 0.000000 0.000000 0.000000 0.000000 1.000000 -74.00000 -75.00000 0.000000 -90.00000 14.00000 0.000000 0.000000 0.000000 -90.00000 0.000000 0.000000 1.000000 74.00000 75.00000 0.000000 90.00000 -14.00000 0.000000 0.000000 0.000000 -90.00000 -11.00000 20.00000 13.00000 25.00000 0.000000 0.000000 -14.00000 0.000000 0.000000 -11.00000 -20.00000 -13.00000 25.00000 0.000000 0.000000 -14.00000 0.000000 0.000000 
10.26667 43.52852 0.000000 1.000000 0.000000 0.000000 1.000000 0.000000 0.000000 1.000000 0.000000 0.000000 1.000000 0.000000 0.000000 1.000000 0.000000 0.000000 0.000000 0.000000 1.000000 -74.00000 -67.86667 0.000000 -92.06667 13.06667 0.000000 0.000000 0.000000 -84.00000 0.000000 0.000000 1.000000 74.00000 67.86667 0.000000 92.06667 -13.06667 0.000000 0.000000 0.000000 -84.00000 -11.00000 18.66667 12.13333 30.26667 0.000000 0.000000 -14.00000 0.000000 0.000000 -11.00000 -18.66667 -12.13333 25.00000 0.000000 0.000000 -14.00000 0.000000 0.000000 
